HIERARCHY
ROOT hips
{
  OFFSET 0 10.6860622 2.3727825e-15
  CHANNELS 6 Xposition Yposition Zposition Yrotation Xrotation Zrotation
  JOINT leftUpperLeg
  {
    OFFSET 0.6642549969 -0.9402397400000004 0
    CHANNELS 3 Yrotation Xrotation Zrotation
    JOINT leftLowerLeg
    {
      OFFSET 0 -3.997221335632195 0
      CHANNELS 3 Yrotation Xrotation Zrotation
      JOINT leftFoot
      {
        OFFSET -0.13777839790000004 -4.6145792000000005 -0.22186036399999998
        CHANNELS 3 Yrotation Xrotation Zrotation
        JOINT leftToes
        {
          OFFSET -0.03777410834999995 -0.9130806927000008 0.85230013
          CHANNELS 3 Yrotation Xrotation Zrotation
          End Site
          {
            OFFSET -0.03777410834999995 -0.9130806927000008 0.85230013
          }
        }
      }
    }
  }
  JOINT rightUpperLeg
  {
    OFFSET -0.6642778626 -0.9402397400000004 0
    CHANNELS 3 Yrotation Xrotation Zrotation
    JOINT rightLowerLeg
    {
      OFFSET 0 -3.997221452859387 0
      CHANNELS 3 Yrotation Xrotation Zrotation
      JOINT rightFoot
      {
        OFFSET 0.1377926176 -4.6145792000000005 -0.22185782299999995
        CHANNELS 3 Yrotation Xrotation Zrotation
        JOINT rightToes
        {
          OFFSET 0.037780746850000047 -0.9130806927000008 0.85230167
          CHANNELS 3 Yrotation Xrotation Zrotation
          End Site
          {
            OFFSET 0.037780746850000047 -0.9130806927000008 0.85230167
          }
        }
      }
    }
  }
  JOINT spine
  {
    OFFSET 0 0.13988381660000015 0
    CHANNELS 3 Yrotation Xrotation Zrotation
    JOINT chest
    {
      OFFSET 0 0.6191039003973773 0
      CHANNELS 3 Yrotation Xrotation Zrotation
      JOINT upperChest
      {
        OFFSET 0 0.9855186130586943 0
        CHANNELS 3 Yrotation Xrotation Zrotation
        JOINT leftShoulder
        {
          OFFSET 0.1807663869 1.5087829790000005 0
          CHANNELS 3 Yrotation Xrotation Zrotation
          JOINT leftUpperArm
          {
            OFFSET 0.5985063006419806 0 0
            CHANNELS 3 Yrotation Xrotation Zrotation
            JOINT leftLowerArm
            {
              OFFSET 2.2993332369501065 0 0
              CHANNELS 3 Yrotation Xrotation Zrotation
              JOINT leftHand
              {
                OFFSET 2.395047042602395 0 0
                CHANNELS 3 Yrotation Xrotation Zrotation
                JOINT leftIndexProximal
                {
                  OFFSET 0.5766295810000004 0.04556643899499946 0.17265095988184
                  CHANNELS 3 Yrotation Xrotation Zrotation
                  JOINT leftIndexIntermediate
                  {
                    OFFSET 0.2957229000000008 -0.019352197700001517 -0.007932640616999987
                    CHANNELS 3 Yrotation Xrotation Zrotation
                    JOINT leftIndexDistal
                    {
                      OFFSET 0.19008243099999922 -0.012484908149998475 -0.002786250786000012
                      CHANNELS 3 Yrotation Xrotation Zrotation
                      End Site
                      {
                        OFFSET 0.19008243099999922 -0.012484908149998475 -0.002786250786000012
                      }
                    }
                  }
                }
                JOINT leftMiddleProximal
                {
                  OFFSET 0.5834975091000001 0.0524350405149987 0.02204081888183999
                  CHANNELS 3 Yrotation Xrotation Zrotation
                  JOINT leftMiddleIntermediate
                  {
                    OFFSET 0.33880573540000003 -0.019871473270000717 -0.00000971183179999946
                    CHANNELS 3 Yrotation Xrotation Zrotation
                    JOINT leftMiddleDistal
                    {
                      OFFSET 0.20676022730000088 -0.012221336379999448 0.0001471936708000235
                      CHANNELS 3 Yrotation Xrotation Zrotation
                      End Site
                      {
                        OFFSET 0.20676022730000088 -0.012221336379999448 0.0001471936708000235
                      }
                    }
                  }
                }
                JOINT leftLittleProximal
                {
                  OFFSET 0.5344154683999995 -0.012880921405001189 -0.24414037221816004
                  CHANNELS 3 Yrotation Xrotation Zrotation
                  JOINT leftLittleIntermediate
                  {
                    OFFSET 0.21758961730000093 -0.011650919939999227 0.011893592810000034
                    CHANNELS 3 Yrotation Xrotation Zrotation
                    JOINT leftLittleDistal
                    {
                      OFFSET 0.1475273964999999 -0.008152365682999818 0.006001092492999946
                      CHANNELS 3 Yrotation Xrotation Zrotation
                      End Site
                      {
                        OFFSET 0.1475273964999999 -0.008152365682999818 0.006001092492999946
                      }
                    }
                  }
                }
                JOINT leftRingProximal
                {
                  OFFSET 0.5799399463000003 0.026911854694997794 -0.12150566991816003
                  CHANNELS 3 Yrotation Xrotation Zrotation
                  JOINT leftRingIntermediate
                  {
                    OFFSET 0.26167887460000006 -0.013480186499999602 0.010996293000000053
                    CHANNELS 3 Yrotation Xrotation Zrotation
                    JOINT leftRingDistal
                    {
                      OFFSET 0.17667108799999987 -0.008990287899999228 0.0055541023999999065
                      CHANNELS 3 Yrotation Xrotation Zrotation
                      End Site
                      {
                        OFFSET 0.17667108799999987 -0.008990287899999228 0.0055541023999999065
                      }
                    }
                  }
                }
                JOINT leftThumbProximal
                {
                  OFFSET 0.11018806699999972 -0.09448718900500053 0.17047963138184
                  CHANNELS 3 Yrotation Xrotation Zrotation
                  JOINT leftThumbIntermediate
                  {
                    OFFSET 0.31062601459999983 -0.08126270900000132 0.15443142000000007
                    CHANNELS 3 Yrotation Xrotation Zrotation
                    JOINT leftThumbDistal
                    {
                      OFFSET 0.21627175790000086 -0.08833193599999878 0.018771167799999988
                      CHANNELS 3 Yrotation Xrotation Zrotation
                      End Site
                      {
                        OFFSET 0.21627175790000086 -0.08833193599999878 0.018771167799999988
                      }
                    }
                  }
                }
              }
            }
          }
        }
        JOINT neck
        {
          OFFSET 0 1.5463305265074576 0
          CHANNELS 3 Yrotation Xrotation Zrotation
          JOINT head
          {
            OFFSET 0 0.8456443600000344 0
            CHANNELS 3 Yrotation Xrotation Zrotation
            JOINT leftEye
            {
              OFFSET 0.30408573140000006 0.5104519199999995 0.1276382305
              CHANNELS 3 Yrotation Xrotation Zrotation
              End Site
              {
                OFFSET 0.30408573140000006 0.5104519199999995 0.1276382305
              }
            }
            JOINT rightEye
            {
              OFFSET -0.30409491089999996 0.5104519199999995 0.1276379445
              CHANNELS 3 Yrotation Xrotation Zrotation
              End Site
              {
                OFFSET -0.30409491089999996 0.5104519199999995 0.1276379445
              }
            }
            JOINT jaw
            {
              OFFSET -3.155239131000001e-7 -0.11984121820000082 0.60178107
              CHANNELS 3 Yrotation Xrotation Zrotation
              End Site
              {
                OFFSET -3.155239131000001e-7 -0.11984121820000082 0.60178107
              }
            }
          }
        }
        JOINT rightShoulder
        {
          OFFSET -0.1807303465 1.5087829790000005 0
          CHANNELS 3 Yrotation Xrotation Zrotation
          JOINT rightUpperArm
          {
            OFFSET -0.5985063796536958 0 0
            CHANNELS 3 Yrotation Xrotation Zrotation
            JOINT rightLowerArm
            {
              OFFSET -2.2993322059002854 0 0
              CHANNELS 3 Yrotation Xrotation Zrotation
              JOINT rightHand
              {
                OFFSET -2.395045314457259 0 0
                CHANNELS 3 Yrotation Xrotation Zrotation
                JOINT rightIndexProximal
                {
                  OFFSET -0.5764487688300002 0.0441371204405987 0.17361932004999997
                  CHANNELS 3 Yrotation Xrotation Zrotation
                  JOINT rightIndexIntermediate
                  {
                    OFFSET -0.29573011380000047 -0.01934826376999843 -0.007698921482999974
                    CHANNELS 3 Yrotation Xrotation Zrotation
                    JOINT rightIndexDistal
                    {
                      OFFSET -0.19008373999999884 -0.012503266380000655 -0.0026365778999999897
                      CHANNELS 3 Yrotation Xrotation Zrotation
                      End Site
                      {
                        OFFSET -0.19008373999999884 -0.012503266380000655 -0.0026365778999999897
                      }
                    }
                  }
                }
                JOINT rightMiddleProximal
                {
                  OFFSET -0.5834852037300005 0.05211639405060153 0.02307162440000001
                  CHANNELS 3 Yrotation Xrotation Zrotation
                  JOINT rightMiddleIntermediate
                  {
                    OFFSET -0.33880114510000003 -0.019952774050000954 0.0002455003561999819
                    CHANNELS 3 Yrotation Xrotation Zrotation
                    JOINT rightMiddleDistal
                    {
                      OFFSET -0.20675694929999955 -0.012273788999999091 0.00030209124000002766
                      CHANNELS 3 Yrotation Xrotation Zrotation
                      End Site
                      {
                        OFFSET -0.20675694929999955 -0.012273788999999091 0.00030209124000002766
                      }
                    }
                  }
                }
                JOINT rightLittleProximal
                {
                  OFFSET -0.5346811737299992 -0.011214256288399227 -0.24363941305000003
                  CHANNELS 3 Yrotation Xrotation Zrotation
                  JOINT rightLittleIntermediate
                  {
                    OFFSET -0.21757715980000092 -0.011771559690000988 0.01201554387
                    CHANNELS 3 Yrotation Xrotation Zrotation
                    JOINT rightLittleDistal
                    {
                      OFFSET -0.1475201849000004 -0.00822055339600003 0.006082065407000015
                      CHANNELS 3 Yrotation Xrotation Zrotation
                      End Site
                      {
                        OFFSET -0.1475201849000004 -0.00822055339600003 0.006082065407000015
                      }
                    }
                  }
                }
                JOINT rightRingProximal
                {
                  OFFSET -0.5800810755299999 0.027657985680600072 -0.12066365025000003
                  CHANNELS 3 Yrotation Xrotation Zrotation
                  JOINT rightRingIntermediate
                  {
                    OFFSET -0.26166445029999974 -0.013623118409999302 0.011164098990000045
                    CHANNELS 3 Yrotation Xrotation Zrotation
                    JOINT rightRingDistal
                    {
                      OFFSET -0.17666387530000027 -0.009072900100000503 0.005668185599999959
                      CHANNELS 3 Yrotation Xrotation Zrotation
                      End Site
                      {
                        OFFSET -0.17666387530000027 -0.009072900100000503 0.005668185599999959
                      }
                    }
                  }
                }
                JOINT rightThumbProximal
                {
                  OFFSET -0.10997596379000074 -0.09577489355940072 0.16989765924999997
                  CHANNELS 3 Yrotation Xrotation Zrotation
                  JOINT rightThumbIntermediate
                  {
                    OFFSET -0.31036620999999986 -0.08229339117999834 0.15440884469999996
                    CHANNELS 3 Yrotation Xrotation Zrotation
                    JOINT rightThumbDistal
                    {
                      OFFSET -0.21631306399999906 -0.08825326400000111 0.018656797720000014
                      CHANNELS 3 Yrotation Xrotation Zrotation
                      End Site
                      {
                        OFFSET -0.21631306399999906 -0.08825326400000111 0.018656797720000014
                      }
                    }
                  }
                }
              }
            }
          }
        }
      }
    }
  }
}
MOTION
Frames: 6
Frame Time: 0.03333333333333333
0.11528199550955653 -0.21041470964307968 3.5610173832136316 0 21.449188107503456 0 13.478949711744773 -47.91636448425291 4.966653317471174 4.923381601524547 27.08251448185125 3.4254768345594537 10.028832594183836 5.945717428073845 3.92676106668818 0 0 0 -11.133668400100472 -47.55524900841727 -7.6653627663752415 -4.714588737305949 25.660658069226898 -3.2402117824511305 -10.968479543178317 7.934572403035835 -2.7234649650501614 0 0 0 -0.4464518868394084 5.115263946069952 0.2366798672763403 -1.9167397020744363 -0.6550960087565401 1.5126107350569082 0 0 0 -20.120088072002424 26.579024359098725 -30.764887956627447 42.85219978893115 -62.50774208735939 -78.8956359632378 1.8424599732301092 -15.37572496431283 -86.87670391190932 135.79693090334678 42.82187726649616 171.33068361386677 0 0 0 0 0 0 0 0 0 0 0 0 0 0 0 0 0 0 0 0 0 0 0 0 0 0 0 0 0 0 0 0 0 0 0 0 0 0 0 0 0 0 0 0 0 0 0.19053661561469612 0 0 -10.147012637148386 0 0 0 0 0 0 0 0 0 0 18.972456412360167 25.116206578569017 29.27023952948933 -42.848449465089914 -62.615213136813786 78.72547650478653 -1.8876194788391973 -15.549403932644456 86.50652980612064 -142.54957305202385 41.68818036869374 -172.16860897346223 0 0 0 0 0 0 0 0 0 0 0 0 0 0 0 0 0 0 0 0 0 0 0 0 0 0 0 0 0 0 0 0 0 0 0 0 0 0 0 0 0 0 0 0 0
0.11528199550955653 -0.21041470964307968 3.534534312627047 0 21.900121118780273 0 12.785693814639549 -48.44199017450113 5.193233991599443 4.923381601524547 27.08251448185125 3.4254768345594537 10.578715462367361 6.179389645258623 3.883677291263784 0 0 0 -10.318031562256923 -48.04712810152528 -7.980923370892371 -4.714588737305949 25.660658069226898 -3.2402117824511305 -11.581613541136063 8.179587516074143 -2.6716915100451923 0 0 0 -0.4464518868394084 5.115263946069952 0.2366798672763403 -1.917115365808526 -1.307450840669658 1.534472632551774 0 0 0 -20.120088072002424 26.579024359098725 -30.764887956627447 42.85219978893115 -62.50774208735939 -78.8956359632378 1.8424599732301092 -15.37572496431283 -86.87670391190932 135.68490842540393 42.819414250808414 170.9837135023043 0 0 0 0 0 0 0 0 0 0 0 0 0 0 0 0 0 0 0 0 0 0 0 0 0 0 0 0 0 0 0 0 0 0 0 0 0 0 0 0 0 0 0 0 0 0 -0.4933603721229797 0 0 -11.195847018661988 0 0 0 0 0 0 0 0 0 0 18.972456412360167 25.116206578569017 29.27023952948933 -42.848449465089914 -62.615213136813786 78.72547650478653 -1.8876194788391973 -15.549403932644456 86.50652980612064 -142.4423359258131 41.6897215290801 -171.82705578471493 0 0 0 0 0 0 0 0 0 0 0 0 0 0 0 0 0 0 0 0 0 0 0 0 0 0 0 0 0 0 0 0 0 0 0 0 0 0 0 0 0 0 0 0 0
0.11528199550955653 -0.21041470964307968 3.5080512420404624 0 22.351026837039633 0 12.082130062711835 -48.965631586196594 5.431816597078111 4.923381601524547 27.08251448185125 3.4254768345594537 11.128610166791779 6.41343572282232 3.842838633427106 0 0 0 -9.490606444229764 -48.53582779878854 -8.31000197007567 -4.714588737305949 25.660658069226898 -3.2402117824511305 -12.194817739789848 8.425100288053807 -2.622544045048154 0 0 0 -0.4464518868394084 5.115263946069952 0.2366798672763403 -1.917739645452683 -1.9597196054170147 1.5563429685522536 0 0 0 -20.120088072002424 26.579024359098725 -30.764887956627447 42.85219978893115 -62.50774208735939 -78.8956359632378 1.8424599732301092 -15.37572496431283 -86.87670391190932 135.5729223369953 42.81642989634333 170.63677727541523 0 0 0 0 0 0 0 0 0 0 0 0 0 0 0 0 0 0 0 0 0 0 0 0 0 0 0 0 0 0 0 0 0 0 0 0 0 0 0 0 0 0 0 0 0 0 -1.1772833385594375 0 0 -12.2447698110298 0 0 0 0 0 0 0 0 0 0 18.972456412360167 25.116206578569017 29.27023952948933 -42.848449465089914 -62.615213136813786 78.72547650478653 -1.8876194788391973 -15.549403932644456 86.50652980612064 -142.33510067915435 41.6907962473423 -171.48550099513693 0 0 0 0 0 0 0 0 0 0 0 0 0 0 0 0 0 0 0 0 0 0 0 0 0 0 0 0 0 0 0 0 0 0 0 0 0 0 0 0 0 0 0 0 0
0.11528199550955653 -0.21041470964307968 3.481568171453878 0 22.80189416325255 0 11.367929988292866 -49.48717034975589 5.6827470113372724 4.923381601524547 27.08251448185125 3.4254768345594537 11.678503942615375 6.647823543694734 3.8042496063186957 0 0 0 -8.65108479154843 -49.02113012334661 -8.65291796069242 -4.714588737305949 25.660658069226898 -3.2402117824511305 -12.808084840505279 8.671073847084424 -2.5760367650228893 0 0 0 -0.4464518868394084 5.115263946069952 0.2366798672763403 -1.9186132244097898 -2.6118632004434255 1.578226307486373 0 0 0 -20.120088072002424 26.579024359098725 -30.764887956627447 42.85219978893115 -62.50774208735939 -78.8956359632378 1.8424599732301092 -15.37572496431283 -86.87670391190932 135.46096527221485 42.81294755558983 170.28987897304995 0 0 0 0 0 0 0 0 0 0 0 0 0 0 0 0 0 0 0 0 0 0 0 0 0 0 0 0 0 0 0 0 0 0 0 0 0 0 0 0 0 0 0 0 0 0 -1.8611813905807726 0 0 -13.293603199839826 0 0 0 0 0 0 0 0 0 0 18.972456412360167 25.116206578569017 29.27023952948933 -42.848449465089914 -62.615213136813786 78.72547650478653 -1.8876194788391973 -15.549403932644456 86.50652980612064 -142.22786040987222 41.69138163335339 -171.14395423796108 0 0 0 0 0 0 0 0 0 0 0 0 0 0 0 0 0 0 0 0 0 0 0 0 0 0 0 0 0 0 0 0 0 0 0 0 0 0 0 0 0 0 0 0 0
0.11528199550955653 -0.21041470964307968 3.4550853692595647 0 23.25270245597007 0 10.642730537094229 -50.00640737095134 5.946384095733864 4.923381601524547 27.08251448185125 3.4254768345594537 12.228380334367374 6.882513655149214 3.7679177474476506 0 0 0 -7.799165587755771 -49.50287050460874 -9.009986996192419 -4.714588737305949 25.660658069226898 -3.2402117824511305 -13.421389121231726 8.917454856976256 -2.532176949814285 0 0 0 -0.4464518868394084 5.115263946069952 0.2366798672763403 -1.9197369652231424 -3.263835276815365 1.6001266467404882 0 0 0 -20.120088072002424 26.579024359098725 -30.764887956627447 42.85219978893115 -62.50774208735939 -78.8956359632378 1.8424599732301092 -15.37572496431283 -86.87670391190932 135.34905283671105 42.80899524328913 169.94302570761613 0 0 0 0 0 0 0 0 0 0 0 0 0 0 0 0 0 0 0 0 0 0 0 0 0 0 0 0 0 0 0 0 0 0 0 0 0 0 0 0 0 0 0 0 0 0 -2.5450043677816083 0 0 -14.342174624986706 0 0 0 0 0 0 0 0 0 0 18.972456412360167 25.116206578569017 29.27023952948933 -42.848449465089914 -62.615213136813786 78.72547650478653 -1.8876194788391973 -15.549403932644456 86.50652980612064 -142.12062118526103 41.69151426061171 -170.80241552028298 0 0 0 0 0 0 0 0 0 0 0 0 0 0 0 0 0 0 0 0 0 0 0 0 0 0 0 0 0 0 0 0 0 0 0 0 0 0 0 0 0 0 0 0 0
0.11528199550955653 -0.21041470964307968 3.4286022986729803 0 23.703443737911996 0 9.906175930232857 -50.523208812096335 6.223091287153352 4.923381601524547 27.08251448185125 3.4254768345594537 12.778234698043168 7.1174768830393225 3.733848935015936 0 0 0 -6.934541079204412 -49.980844872966514 -9.381520310003818 -4.714588737305949 25.660658069226898 -3.2402117824511305 -14.034710631388366 9.164202857271393 -2.490974477003003 0 0 0 -0.4464518868394084 5.115263946069952 0.2366798672763403 -1.921109688371382 -3.9155959511649354 1.6220482699240848 0 0 0 -20.120088072002424 26.579024359098725 -30.764887956627447 42.85219978893115 -62.50774208735939 -78.8956359632378 1.8424599732301092 -15.37572496431283 -86.87670391190932 135.23719026428233 42.804521847010705 169.5962315805225 0 0 0 0 0 0 0 0 0 0 0 0 0 0 0 0 0 0 0 0 0 0 0 0 0 0 0 0 0 0 0 0 0 0 0 0 0 0 0 0 0 0 0 0 0 0 -3.228709305325728 0 0 -15.39030733563875 0 0 0 0 0 0 0 0 0 0 18.972456412360167 25.116206578569017 29.27023952948933 -42.848449465089914 -62.615213136813786 78.72547650478653 -1.8876194788391973 -15.549403932644456 86.50652980612064 -142.01339241733808 41.69113467298033 -170.4609062582167 0 0 0 0 0 0 0 0 0 0 0 0 0 0 0 0 0 0 0 0 0 0 0 0 0 0 0 0 0 0 0 0 0 0 0 0 0 0 0 0 0 0 0 0 0
